<?xml version="1.0" encoding="utf-8"?>
<svg xmlns="http://www.w3.org/2000/svg">
<symbol id="icon-check" viewBox="0 0 768 1024"><title>Checkmark</title><path d="M640 192l-384 384-128-128-128 128 256 256 512-512-128-128z"/></symbol>
<symbol id="icon-info" viewBox="0 0 896 1024"><title>Information</title><path d="M448 384c35 0 64-29 64-64s-29-64-64-64-64 29-64 64 29 64 64 64zM448 64c-247 0-448 201-448 448s201 448 448 448 448-201 448-448-201-448-448-448zM448 832c-177 0-320-143-320-320s143-320 320-320 320 143 320 320-143 320-320 320zM512 512c0-32-32-64-64-64s-32 0-64 0-64 32-64 64h64s0 160 0 192 32 64 64 64 32 0 64 0 64-32 64-64h-64s0-160 0-192z"/></symbol>
<symbol id="icon-home" viewBox="0 0 1024 1024"><title>Home</title><path d="M192 576l64 384h192v-320h128v320h192l64-384-320-320-320 320zM832 384v-256h-128l0.312 128.312-192.312-192.312-512 512h128l384-384 384 384h128l-192-192z"/></symbol>
<symbol id="icon-package" viewBox="0 0 1024 1024"><title>Package</title><path d="M480 64l-480 128v576l480 128 480-128v-576l-480-128zM63.875 720.934l-0.375-432.934 384.498 102.533 0.001 432.833-384.124-102.432zM63.5 224l160.254-42.734 416.246 111.134-160 42.667-416.5-111.067zM896.125 720.934l-384.124 102.432 0.001-432.833 127.998-34.133v156l128-34.135v-155.998l128.5-34.267-0.375 432.934zM768 258.267v-0.125l-416.266-111.004 128.266-34.204 416.5 111.066-128.5 34.267z"/></symbol>
<symbol id="icon-reddit" viewBox="0 0 1024 1024"><title>Reddit</title><path d="M256 640c0-35.346 28.654-64 64-64s64 28.654 64 64c0 35.346-28.654 64-64 64s-64-28.654-64-64zm384 0c0-35.346 28.654-64 64-64s64 28.654 64 64c0 35.346-28.654 64-64 64s-64-28.654-64-64zm3.112 136.778c16.482-12.986 40.376-10.154 53.364 6.332s10.152 40.378-6.334 53.366C644.246 872.634 574.32 896 512 896c-62.322 0-132.248-23.366-178.144-59.522-16.486-12.99-19.32-36.882-6.332-53.368 12.99-16.482 36.882-19.318 53.366-6.332C407.312 797.596 459.612 820 512 820s104.688-22.404 131.112-43.222zM1024 512c0-70.692-57.308-128-128-128-48.116 0-89.992 26.57-111.852 65.82-65.792-35.994-145.952-59.246-233.28-64.608l76.382-171.526 146.194 42.2C786.596 293.228 822.162 320 864 320c53.02 0 96-42.98 96-96s-42.98-96-96-96c-36.56 0-68.342 20.442-84.554 50.514L616.54 131.49c-18.224-5.258-37.538 3.722-45.252 21.052l-103.77 233.026c-85.138 5.996-163.262 29.022-227.636 64.236C218.018 410.554 176.116 384 128 384 57.308 384 0 441.308 0 512c0 52.312 31.402 97.254 76.372 117.102C68.302 653.13 64 678.206 64 704c0 176.73 200.576 320 448 320 247.422 0 448-143.27 448-320 0-25.792-4.3-50.862-12.368-74.886C992.602 609.264 1024 564.312 1024 512zM864 188c19.882 0 36 16.118 36 36s-16.118 36-36 36-36-16.118-36-36 16.118-36 36-36zM64 512c0-35.29 28.71-64 64-64 25.508 0 47.572 15.004 57.846 36.646-33.448 25.366-61.166 54.626-81.666 86.738C80.656 561.914 64 538.872 64 512zm448 436c-205.45 0-372-109.242-372-244s166.55-244 372-244 372 109.242 372 244-166.55 244-372 244zm407.82-376.616c-20.5-32.112-48.218-61.372-81.666-86.738C848.43 463.004 870.492 448 896 448c35.29 0 64 28.71 64 64 0 26.872-16.656 49.914-40.18 59.384z"/></symbol>
<symbol id="icon-twitter" viewBox="0 0 1024 1024"><title>Twitter</title><path d="M1024 226.4c-37.6 16.8-78.2 28-120.6 33 43.4-26 76.6-67.2 92.4-116.2-40.6 24-85.6 41.6-133.4 51C824 153.4 769.4 128 709 128c-116 0-210 94-210 210 0 16.4 1.8 32.4 5.4 47.8-174.6-8.8-329.4-92.4-433-219.6-18 31-28.4 67.2-28.4 105.6 0 72.8 37 137.2 93.4 174.8-34.4-1-66.8-10.6-95.2-26.2v2.6c0 101.8 72.4 186.8 168.6 206-17.6 4.8-36.2 7.4-55.4 7.4-13.6 0-26.6-1.4-39.6-3.8 26.8 83.4 104.4 144.2 196.2 146-72 56.4-162.4 90-261 90-17 0-33.6-1-50.2-3C93 925.4 203.4 960 322 960c386.4 0 597.8-320.2 597.8-597.8 0-9.2-.2-18.2-.6-27.2 41-29.4 76.6-66.4 104.8-108.6z"/></symbol>
<symbol id="icon-discord" viewBox="0 0 512 512"><title>Discord</title><path d="M431.58-.06c29.96 0 54.18 24.25 55.62 52.8v459.2l-57.06-48.48-31.36-28.55-34.24-29.75 14.28 47.04H79.3c-29.92 0-54.18-22.73-54.18-52.8V52.8C25.12 24.32 49.38 0 79.36 0h352zm-130.56 121.2h-.64l-4.28 4.3c44.22 12.8 65.6 32.8 65.6 32.8-28.48-14.27-54.2-21.38-79.88-24.26-18.56-2.88-37.12-1.4-52.8 0h-4.22c-9.98 0-31.36 4.3-59.9 15.68-10 4.3-15.68 7.14-15.68 7.14s21.37-21.38 68.48-32.8l-2.88-2.88s-35.68-1.38-74.18 27.14c0 0-38.5 67.04-38.5 149.76 0 0 21.38 37.05 79.84 38.5 0 0 8.58-11.4 17.12-21.38-32.8-10-45.63-29.96-45.63-29.96s2.88 1.4 7.14 4.26h1.3c.63 0 .95.32 1.27.64v.16c.32.32.64.64 1.28.64 7.04 2.88 14.08 5.7 19.84 8.54 9.9 4.3 22.7 8.58 38.4 11.43 19.83 2.88 42.55 4.3 68.47 0 12.8-2.88 25.6-5.7 38.4-11.43 8.32-4.25 18.56-8.54 29.76-15.68 0 0-12.8 19.97-47.04 29.96 7.03 9.98 16.95 21.37 16.95 21.37 58.56-1.28 81.28-38.4 82.56-36.8 0-82.56-38.7-149.76-38.7-149.76-34.9-25.9-67.53-26.87-73.3-26.87zm3.62 94.16c14.98 0 27.1 12.8 27.1 28.48 0 15.77-12.16 28.54-27.1 28.54s-27.07-12.8-27.07-28.48c0-15.78 12.16-28.54 27.07-28.54zm-96.96 0c14.94 0 27.07 12.8 27.07 28.48 0 15.77-12.16 28.54-27.07 28.54-14.98 0-27.1-12.8-27.1-28.48 0-15.78 12.16-28.54 27.1-28.54z"/></symbol>
<symbol id="icon-chariz" viewBox="0 0 186 300"><path d="M173.975 153.249c6.172 13.548 10.14 28.051 11.477 41.937 1.422 14.463.064 29.04-3.916 42.13-3.55 11.765-9.36 22.886-16.797 32.15-6.136 7.642-13.235 14.065-21.104 19.075-6.065 3.916-12.413 6.982-18.847 9.09a64.427 64.427 0 0 1-8.429 2.257 6.293 6.293 0 0 1-1.176.112 6.12 6.12 0 0 1-4.42-1.879 6.23 6.23 0 0 1-1.59-5.683c.54-2.412 1.13-5.205 1.734-8.23.807-4.425 1.832-10.464 2.398-17.09.564-7.304.56-13.603-.015-19.221-.625-6.384-1.974-12.441-4.024-18.031-1.816-4.914-4.251-9.831-7.66-15.455-3.198-5.264-6.68-10.405-10.639-15.706-3.583-4.818-7.924-10.262-14.177-17.777-.56-.601-1.062-1.206-1.671-1.935a116.181 116.181 0 0 0-2.21-2.604l-1.294-1.491c-.034-.043-3.272-3.85-4.448-5.323-3.947-4.685-7.934-10.265-12.093-16.94-7.869-12.82-13.574-26.82-16.52-40.53-3.103-14.162-3.39-29.424-.8-42.95 2.269-12.293 7.019-24.133 13.73-34.2 5.468-8.237 12.053-15.334 19.568-21.079C76.944 9.384 83.102 5.81 89.36 3.24A69.098 69.098 0 0 1 98.288.204a6.111 6.111 0 0 1 5.606 1.327 6.223 6.223 0 0 1 2.066 5.413 253.447 253.447 0 0 0-.918 8.913c-.39 5.02-.77 11.037-.585 17.3.188 7.053.887 13.44 2.085 19.005 1.262 6.144 3.257 11.827 5.923 16.933 2.302 4.483 5.073 8.783 8.995 13.982 3.35 4.415 7.213 9.038 12.062 14.426.647.818 1.373 1.547 2.014 2.201.492.506.932.958 1.551 1.656.844 1.035 1.86 2.07 2.845 3.069l.902.92c.612.605 1.231 1.287 1.967 2.137l3.014 3.317c1.308 1.361 3.842 4.313 6.336 7.394 8.875 10.91 16.224 22.713 21.824 35.052zm-109.577 80.12c2.877 6.004 4.728 12.433 5.357 18.591.648 6.318 0 12.958-1.835 18.688-1.659 5.216-4.369 10.148-7.837 14.25-2.88 3.402-6.201 6.257-9.874 8.47a40.18 40.18 0 0 1-6.406 3.192 6.555 6.555 0 0 1-2.363.44 6.499 6.499 0 0 1-3.947-1.325c-1.779-1.37-2.644-3.556-2.257-5.71.396-2.225.676-4.23.846-6.13.259-3.198.259-5.993-.009-8.477-.293-2.849-.925-5.544-1.882-8.025-.847-2.18-1.983-4.358-3.566-6.833a84.722 84.722 0 0 0-4.961-6.962c-2.137-2.731-4.64-5.631-6.582-7.85l-.097-.1a13.5 13.5 0 0 1-.702-.777c-.305-.355-.617-.71-1.06-1.19l-.561-.608.01-.009c-.507-.563-1.647-1.824-2.172-2.448-1.788-2.017-3.645-4.49-5.587-7.444-3.686-5.706-6.349-11.918-7.724-18.004-1.448-6.27-1.577-13.045-.366-19.056 1.338-6.875 4.224-12.036 6.409-15.147 2.543-3.643 5.615-6.787 9.122-9.338a40.01 40.01 0 0 1 6.808-3.984 6.546 6.546 0 0 1 6.254.464c1.85 1.208 2.89 3.267 2.729 5.402-.123 1.617-.274 4.069-.195 6.661.088 3.123.412 5.954.966 8.414.595 2.737 1.52 5.249 2.764 7.513 1.36 2.506 2.898 4.556 4.227 6.24 1.57 1.96 3.355 3.986 5.43 6.164.075.078.147.16.216.24.268.32.58.624.898.937l.544.542c.076.075.148.157.217.235.39.446.85.894 1.31 1.334l.396.382c.29.28.564.564.941.97l1.451 1.518c.614.608 1.87 2.008 2.909 3.228 4.126 4.815 7.557 10.055 10.179 15.541z" fill-rule="evenodd"/></symbol>
</svg>
